<svg version="1.2" xmlns="http://www.w3.org/2000/svg" viewBox="0 0 500 501" width="112" height="40">
	<title>logo-dark</title>
	<defs>
		<clipPath clipPathUnits="userSpaceOnUse" id="cp1">
			<path d="m189.33 214.3h18.67v11.03h-18.67z"/>
		</clipPath>
		<clipPath clipPathUnits="userSpaceOnUse" id="cp2">
			<path d="m204 222.67h12.88l-0.01 17.33h-12.87z"/>
		</clipPath>
		<clipPath clipPathUnits="userSpaceOnUse" id="cp3">
			<path d="m161.56 214.3h55.31v52.68h-55.31z"/>
		</clipPath>
	</defs>
	<style>
		.s0 { fill: #ffffff } 
		.s1 { fill: #000000 } 
		.s2 { fill: #68a81e } 
	</style>
	<path fill-rule="evenodd" class="s0" d="m-50-48.7h600v600h-600z"/>
	<path fill-rule="evenodd" class="s0" d="m-50-48.7h600v600h-600z"/>
	<g>
		<g>
			<g>
				<path class="s1" d="m66.1 265.9v-65.2h15.6v12.5l0.1 12.3 6.9-7.4q7.2-7.3 11.5-12.3l4.5-5.2 8 0.3q8.2 0.4 8.4 0.5 0 0.5-3.3 5.1-3.3 4.5-6.9 9-4 5-9.2 10l-4.9 4.9 1.3 1.4q3.6 4.3 12.6 16.6 8.9 12.2 11.1 16.1l0.7 1.4h-17l-3.6-4.4q-3.7-4.7-8.7-11.4-5-6.8-6.3-8.6-1.2-2-1.6-2-0.4 0-2.1 1l-1.5 1.2v24.2z"/>
			</g>
		</g>
	</g>
	<g>
		<g>
			<g>
				<path class="s1" d="m124.7 219h14.1v46.9h-14.1zm0-21.8h14.1v11.4h-14.1z"/>
			</g>
		</g>
	</g>
	<g>
		<g>
			<g>
				<path class="s1" d="m145 197.3h14.1v68.6h-14.1z"/>
			</g>
		</g>
	</g>
	<g>
		<g>
			<g>
			</g>
		</g>
	</g>
	<g>
		<g>
			<g>
			</g>
		</g>
	</g>
	<g>
		<g>
			<g>
				<path class="s2" d="m220.4 216.4l0.4-15.8h10.4q7.9 0 9.3 0.1 1.4 0.1 1.9 0.9 0.8 1.4 5.7 13.2 4.8 11.7 8.5 21.2 1.1 2.7 1.5 2.7 0.4 0 0.7-1.3 0.5-3.1 11.3-30.8l2.3-6h22.2l0.2 15.8q0.3 15 0.3 32.5v17h-15.1v-8.6q-0.1-12.7-0.3-23.9l-0.3-15.1-2.8 7.2q-5.3 13.8-8.7 21.8l-5.8 14.5-8.8 0.3-1-2.6q-1.6-3.2-6.8-15.7-5.1-12.5-7-17.4-2.3-5.9-2.9-5.9-0.3 0.9-0.3 23.2v22.2h-15.6l0.2-17q0.4-20.2 0.5-32.5z"/>
			</g>
		</g>
	</g>
	<g>
		<g>
			<g>
				<path class="s2" d="m303.5 265.9v-65.2h14.9v65.2z"/>
			</g>
		</g>
	</g>
	<g>
		<g>
			<g>
				<path class="s2" d="m342.6 265.9v-52h-19.8v-13.3h54.6v13.3h-19.4v52z"/>
			</g>
		</g>
	</g>
	<g>
		<g>
			<g>
				<path class="s2" d="m399.3 208.1l2.7-7.6 8.6 0.1 8.5 0.1 1.4 3.9q1.5 3.7 8.4 23.4 7.4 20.7 10.2 28 3.2 8.4 3.5 9.1 0.1 0.5-0.6 0.6-0.9 0.2-7.1 0.1l-7.9-0.1-2.8-7.9-2.8-7.8h-22.1l-2.5 7.8-2.6 7.9-7.8 0.1q-7.8 0.1-7.8 0 0-0.1 5.2-14.3 4.9-13.3 9-25 6.3-17.7 6.5-18.4zm15.4 20.9q-2.9-8.9-3.5-11.1l-0.7-2.1-2.9 8.6q-2.9 9-3.2 10.5-0.4 1.6-0.7 2.5-0.1 0.1 0.1 0.2 0.2 0.1 1 0.2 0.8 0.1 2.1 0.1 1.3 0 3.6 0h7.1z"/>
			</g>
		</g>
	</g>
	<path class="s1" d="m185.3 240.7c0 2.3 2 4.1 4.3 4.1 1.7 0 3.1-0.9 3.8-2.2h0.1l7.8-13.8-13.8 8.2v0.1c-1.3 0.7-2.2 2-2.2 3.6z"/>
	<g id="Clip-Path" clip-path="url(#cp1)">
		<g>
			<path class="s1" d="m206.9 220.8c-4.4-3.7-10.1-6.1-16.5-6.5v6.4c5.4 0.3 8.6 2 11.8 4.6z"/>
		</g>
	</g>
	<g id="Clip-Path" clip-path="url(#cp2)">
		<g>
			<path class="s1" d="m210 238.7h6.5c-0.4-6.3-3-11.5-6.9-15.7l-4.6 4.4c2.8 3.1 4.6 7.1 5 11.3z"/>
		</g>
	</g>
	<g id="Clip-Path" clip-path="url(#cp3)">
		<g>
			<path class="s1" d="m210 241.8c-0.7 10.6-9.6 18.9-20.6 18.9-11.4 0-21-9-21-20.1 0-10.5 9-19.1 18.7-19.9v-6.4c-14.1 0.8-25.2 12.3-25.2 26.4 0 14.5 12.4 26.3 27.3 26.3 14.6 0 26.7-11.5 27.4-25.2z"/>
		</g>
	</g>
</svg>